<svg width="100" height="28" viewBox="0 0 100 28" fill="none" xmlns="http://www.w3.org/2000/svg">
<path d="M99.1041 27.3738C97.6707 27.5951 95.9387 27.9974 90.6231 27.9974C84.8098 27.9974 80.3105 26.4083 80.3105 18.7445V9.25025C80.3105 1.58646 84.8298 -0.00262451 90.6231 -0.00262451C95.9387 -0.00262451 97.6707 0.399669 99.1041 0.620934C99.781 0.701394 100 0.942775 100 1.56634V4.48301C100 4.98588 99.6018 5.38818 99.1041 5.38818H89.986C87.3979 5.38818 86.4622 6.29335 86.4622 9.27036V11.0807H98.5666C99.0643 11.0807 99.4624 11.483 99.4624 11.9859V15.2445C99.4624 15.7474 99.0643 16.1497 98.5666 16.1497H86.4622V18.7847C86.4622 21.7617 87.3979 22.6669 89.986 22.6669H99.1041C99.6018 22.6669 100 23.0692 100 23.5721V26.4686C100 27.052 99.781 27.2934 99.1041 27.3738Z" fill="#111111"/>
<path d="M46.6058 1.54621L42.1862 26.5692C42.0866 27.0319 41.7283 27.4342 41.2903 27.4342H40.8324C40.4342 27.4342 40.1953 27.1123 40.1953 26.7502C40.1953 26.6497 40.1953 26.6094 40.1953 26.5692L44.615 1.54621C44.7145 1.08357 45.0729 0.681274 45.5109 0.681274H45.9688C46.3669 0.681274 46.6058 1.00311 46.6058 1.36518C46.6058 1.46576 46.6058 1.50598 46.6058 1.54621Z" fill="#111111"/>
<path d="M35.3175 1.44564L31.6743 23.7732C31.2761 26.6094 29.9821 27.4342 27.6528 27.4342H25.2439C23.2331 27.4342 22.1581 26.4485 21.5409 23.8336L18.0171 12.6094C17.9375 12.2071 17.9375 12.1066 17.7583 12.1066C17.5791 12.1066 17.5393 12.187 17.4398 12.6094L13.8961 23.8336C13.2789 26.4485 12.2039 27.4342 10.1931 27.4342H7.76428C5.435 27.4342 4.14095 26.6296 3.74278 23.7732L0 1.44564C0 1.40541 0 1.36518 0 1.30484C0 0.90254 0.358351 0.681274 0.75652 0.681274H5.49473C5.85308 0.681274 6.21143 1.00311 6.25124 1.48587L9.01852 21.279C9.05833 21.6813 9.05833 21.9629 9.23751 21.9629C9.41668 21.9629 9.41668 21.7014 9.49632 21.279L13.3386 9.10944C13.5975 8.02323 14.2345 7.07783 16.1457 7.07783H19.2315C21.1427 7.07783 21.7798 8.02323 22.0386 9.10944L25.8809 21.279C25.9606 21.6813 25.9606 21.9629 26.1398 21.9629C26.3189 21.9629 26.3189 21.7014 26.3588 21.279L29.0265 1.48587C29.0663 0.982999 29.4247 0.681274 29.783 0.681274H34.5212C34.9194 0.681274 35.2777 0.90254 35.2777 1.30484C35.3175 1.36518 35.3175 1.40541 35.3175 1.44564Z" fill="#111111"/>
<path d="M73.5219 0.681274H72.9844C72.5265 0.681274 72.208 1.08357 72.1283 1.54621L68.0272 25.1411C67.9874 25.3221 67.7485 25.5031 67.7087 25.5031H67.6888C67.6689 25.5031 67.6689 25.5031 67.649 25.5031C67.5096 25.483 67.4698 25.3623 67.43 25.2014L60.0439 2.10944C59.7652 1.32495 59.1879 0.701391 58.0133 0.701391C57.9536 0.701391 57.8938 0.701391 57.8341 0.701391C57.8142 0.701391 57.7744 0.701391 57.7545 0.701391C56.8586 0.801965 55.8234 1.3853 55.5446 2.91403L51.3838 26.5692C51.3838 26.6094 51.3838 26.6698 51.3838 26.7502C51.3838 27.1123 51.6028 27.4342 52.0209 27.4342H52.4788C52.9366 27.4342 53.295 27.0319 53.3746 26.5692L57.5355 2.91403C57.5753 2.71289 57.6748 2.63243 57.7545 2.61231C57.7744 2.61231 57.7744 2.59219 57.7943 2.59219C57.8142 2.59219 57.8142 2.59219 57.8341 2.59219C57.9934 2.61231 58.1526 2.733 58.1925 2.91403L65.5785 25.9658C65.9368 27.1123 66.5341 27.4342 67.649 27.4342H67.6689C68.7837 27.414 69.7792 26.6094 70.038 25.1612L74.1391 1.56633C74.1391 1.5261 74.1391 1.42553 74.1391 1.3853C74.159 1.00311 73.9798 0.681274 73.5219 0.681274Z" fill="#111111"/>
</svg>
