<svg width="33" height="33" viewBox="0 0 33 33" fill="none" xmlns="http://www.w3.org/2000/svg">
<path d="M25.8089 24.502C25.9018 24.595 25.9755 24.7053 26.0258 24.8266C26.0761 24.948 26.1019 25.0781 26.1019 25.2095C26.1019 25.3409 26.0761 25.471 26.0258 25.5924C25.9755 25.7138 25.9018 25.8241 25.8089 25.917C25.716 26.01 25.6057 26.0837 25.4843 26.1339C25.3629 26.1842 25.2328 26.2101 25.1014 26.2101C24.97 26.2101 24.8399 26.1842 24.7185 26.1339C24.5971 26.0837 24.4868 26.01 24.3939 25.917L16.1014 17.6233L7.80889 25.917C7.62125 26.1047 7.36675 26.2101 7.10139 26.2101C6.83602 26.2101 6.58153 26.1047 6.39389 25.917C6.20625 25.7294 6.10083 25.4749 6.10083 25.2095C6.10083 24.9442 6.20625 24.6897 6.39389 24.502L14.6876 16.2095L6.39389 7.91704C6.20625 7.7294 6.10083 7.4749 6.10083 7.20954C6.10083 6.94418 6.20625 6.68968 6.39389 6.50204C6.58153 6.3144 6.83602 6.20898 7.10139 6.20898C7.36675 6.20898 7.62125 6.3144 7.80889 6.50204L16.1014 14.7958L24.3939 6.50204C24.5815 6.3144 24.836 6.20898 25.1014 6.20898C25.3668 6.20898 25.6212 6.3144 25.8089 6.50204C25.9965 6.68968 26.1019 6.94418 26.1019 7.20954C26.1019 7.4749 25.9965 7.7294 25.8089 7.91704L17.5151 16.2095L25.8089 24.502Z" fill="black"/>
</svg>
